# xmcd
#
# Track frame offsets: 
#        150
#        12545
#        26373
#        38004
#        48695
#        62843
#        76884
#        95425
#        107399
#        119646
#        135832
#        147531
#        162607
#        186521
#        207044
#        223563
#        237036
#        250015
#        263062
#        278273
#        293565
#        306881
#        320091
#        336511
#
# Disc length: 4681 seconds
#
# Revision: 0
# Processed by: cddbd v1.5.2PL0 Copyright (c) Steve Scherf et al.
# Submitted via: ExactAudioCopy v1.0b1
#
DISCID=5c124718
DTITLE=Mississippi Fred McDowell - Downhome Blues 1959, Disc 2
DYEAR=2011
DGENRE=Blues
TTITLE0=Shake 'Em on Down [Alt]
TTITLE1=Cool Water Blues
TTITLE2=Po' Boy Blues
TTITLE3=Clarksdale Mill Blues
TTITLE4=Jim and John
TTITLE5=Hen Duck
TTITLE6=Chevrolet
TTITLE7=Oree
TTITLE8=Sittin' on Top of the World
TTITLE9=All Night Long
TTITLE10=I'm Gonna Live Anyhow 'til I Die
TTITLE11=Buttermilk
TTITLE12=Levee Camp Reminiscence
TTITLE13=Train Time
TTITLE14=Red Cross Store
TTITLE15=You Gotta Cut That Out
TTITLE16=Stop Breaking Down
TTITLE17=Drink on Little Girl
TTITLE18=She Lived Her Life Too Fast
TTITLE19=She Don't Love Me That Way
TTITLE20=Forrest City Jump
TTITLE21=Boogie Children
TTITLE22=Joe Lee's Rock
TTITLE23=You Got Dimples in Your Jaw
EXTD=
EXTT0=
EXTT1=
EXTT2=
EXTT3=
EXTT4=
EXTT5=
EXTT6=
EXTT7=
EXTT8=
EXTT9=
EXTT10=
EXTT11=
EXTT12=
EXTT13=
EXTT14=
EXTT15=
EXTT16=
EXTT17=
EXTT18=
EXTT19=
EXTT20=
EXTT21=
EXTT22=
EXTT23=
PLAYORDER=
